<?xml version="1.0" encoding="UTF-8"?>
<svg version="1.1" viewBox="0 0 64 64" xmlns="http://www.w3.org/2000/svg">
	<symbol id="search" viewBox="0 0 64 64">
		<path d="m49 25c0-13.2-10.8-24-24-24s-24 10.8-24 24 10.8 24 24 24c5.5 0 10-1.5 14-4.25l18.3 18.2 5.66-5.66-18.2-18.3c2.5-3.25 4.25-7.5 4.25-14zm-8 0a16 16 0 0 1-16 16 16 16 0 0 1-16-16 16 16 0 0 1 16-16 16 16 0 0 1 16 16"/>
	</symbol>
	<symbol id="write" viewBox="0 0 64 64">
		<path d="m59 19 4-4v36c0 10-2 12-12 12h-38c-10 0-12-2-12-12v-38c0-10 2-12 12-12h36l-4 4h-32c-6 0-8 2-8 8v38c0 6 2 8 8 8h38c6 0 8-2 8-8z"/>
		<path d="m55 15-24 24h-6v-6l24-24zm-2-10 4-4 6 6-4 4z"/>
	</symbol>
	<symbol id="fold" viewBox="0 0 64 64">
		<path d="m40 32-16 16v-32z"/>
	</symbol>
	<symbol id="notifications" viewBox="0 0 64 64">
		<path d="m32 1c2.21 0 4 1.8 4 4 0 0.81-0.25 1.61-0.71 2.27 9.64 1.61 16.7 9.95 16.7 19.7 0 16 11 17 11 25 0 3.35-10.9 5.3-23.5 5.84-1.18 3.1-4.16 5.16-7.48 5.16s-6.3-2.06-7.48-5.16c-12.6-0.55-23.5-2.49-23.5-5.84 0-8 11-9 11-25 0-9.78 7.07-18.1 16.7-19.7-0.46-0.66-0.71-1.46-0.71-2.27 0-2.19 1.79-4 4-4z"/>
	</symbol>
	<symbol id="add" viewBox="0 0 64 64">
		<path d="m28 1v27h-27v8h27v27h8v-27h27v-8h-27v-27z"/>
	</symbol>
	<symbol id="menu" viewBox="0 0 64 64">
		<rect x="1" y="1" width="62" height="8"/>
		<rect x="1" y="28" width="62" height="8"/>
		<rect x="1" y="55" width="62" height="8"/>
	</symbol>
	<symbol id="ellipse" viewBox="0 0 64 64">
		<rect x="26" y="1" width="12" height="12"/>
		<rect x="26" y="26" width="12" height="12"/>
		<rect x="26" y="51" width="12" height="12"/>
	</symbol>
	<symbol id="confirm" viewBox="0 0 64 64">
		<path d="m63 15.4-39 39-23-23 5.7-5.7 17.3 17.3 33.3-33.3z"/>
	</symbol>
	<symbol id="settings" viewBox="0 0 64 64">
		<circle cx="32" cy="32" r="11"/>
		<path d="m38 63h-12l-0.5-9c-1.5-0.5-3-1-4.5-2l-6.65 6.25-8.5-8.5 5.95-6.75c-0.8-1.45-1.4-3-1.85-4.5l-8.95-0.5v-12l8.95-0.5c0.45-1.55 1-3 1.85-4.5l-5.95-6.65 8.5-8.45 6.65 5.95c1.45-0.85 2.9-1.45 4.5-1.9 0.15-3 0.35-6 0.5-8.95h12l0.5 8.95c1.55 0.45 3 1 4.5 1.85l6.65-5.95 8.5 8.5-5.95 6.65c0.75 1.45 1.4 2.9 1.85 4.5l8.95 0.5v12l-8.95 0.5c-0.45 1.55-1 3-1.85 4.5l5.95 6.65-8.5 8.5-6.5-5.95c-1.45 0.8-2.95 1.45-4.55 1.9-0.25 2.15-0.6 6.25-0.6 8.9z"/>
	</symbol>
	<symbol id="games" viewBox="0 0 64 64">
		<path d="m24 40h8v-4h8v4h8v-4h8v4h7v23h-62v-23h15l-5.7-20.9c2.5 0.5 5.5-0.5 7.5-2z"/>
		<circle cx="11.5" cy="9" r="8"/>
	</symbol>
	<symbol id="heart" viewBox="0 0 64 64">
		<path d="m1 22c0-12 6-21 18-21 8 0 13 8 13 8s5-8 13-8c12 0 18 9 18 21 0 24-31 41-31 41s-31-17-31-41z"/>
	</symbol>
	<symbol id="bubble" viewBox="0 0 64 64">
		<path d="m1 26c0-14 14-25 31-25s31 11 31 25-14 25-31 25h-1c-12 12-28 12-28 12s10-5 10-17.2c0 0-12-5.75-12-19.8z"/>
	</symbol>
	<symbol id="messages" viewBox="0 0 64 64">
		<path d="m1 20.9c0-11.2 11.2-20 24.8-20s24.8 8.8 24.8 20-11.2 20-24.8 20h-0.8c-9.6 9.6-22.4 9.6-22.4 9.6s8-4 8-13.8c0 0-9.6-4.6-9.6-15.8z"/>
		<path d="m38.2 53.4h0.8c9.6 9.6 22.4 9.6 22.4 9.6s-8-4-8-13.8c0 0 9.6-4.6 9.6-15.8 0-11.5-9.7-15.9-9.7-15.9 3.3 17.9-11.7 28.1-31.2 31.2 0 0 2.54 4.91 16.1 4.74z"/>
	</symbol>
	<symbol id="home" viewBox="0 0 64 64">
		<path d="m32 1 31 31h-8v31h-15v-21h-16v21h-16v-31h-7z"/>
	</symbol>
	<symbol id="checkbox" viewBox="0 0 64 64">
		<g color="var(--icon-inline)" opacity="var(--icon-inline-opacity)">
			<path d="m55 19.4-31 31-15-15 5.7-5.7 9.3 9.3 25.3-25.3z"/>
		</g>
		<path d="m9 1h46c4 0 8 4 8 8v46c0 4-4 8-8 8h-46c-4 0-8-4-8-8v-46c0-4 4-8 8-8z"/>
	</symbol>
	<symbol id="contacts" viewBox="0 0 64 64">
		<path d="m5 1h46s4 0 4 4v6h6s2 0 2 2v4s0 2-2 2h-6v9h6s2 0 2 2v4s0 2-2 2h-6v9h6s2 0 2 2v4s0 2-2 2h-6v6c0 2e-6 0 4-4 4h-46s-4 0-4-4v-54s0-4 4-4z"/>
		<g color="var(--icon-inline)">
			<circle cx="28" cy="21" r="8"/>
			<path d="m28 33c18 0 16 16 16 16h-32s-2-16 16-16z"/>
		</g>
	</symbol>
	<symbol id="groups" viewBox="0 0 64 64">
		<g color="var(--icon-inline)">
			<circle cx="32" cy="21" r="8"/>
			<path d="m32 33c18 0 16 16 16 16h-32s-2-16 16-16z"/>
			<circle cx="16" cy="26" r="6"/>
			<path d="m18 35c-4.5 3.5-5 10-5 10h-6s-1.5-10 11-10z"/>
			<circle cx="48" cy="26" r="6"/>
			<path d="m46 35c4.5 3.5 5 10 5 10h6s1.5-10-11-10z"/>
		</g>
		<circle cx="32" cy="32" r="31"/>
	</symbol>
	<symbol id="videos" viewBox="0 0 64 64">
		<g color="var(--icon-inline)">
			<rect x="3" y="1" width="8" height="3.5"/>
			<rect x="3" y="12.5" width="8" height="8"/>
			<rect x="3" y="28.5" width="8" height="8"/>
			<rect x="3" y="44.5" width="8" height="8"/>
			<rect x="3" y="59.5" width="8" height="3.5"/>
			<rect x="53" y="1" width="8" height="3.5"/>
			<rect x="53" y="12.5" width="8" height="8"/>
			<rect x="53" y="28.5" width="8" height="8"/>
			<rect x="53" y="44.5" width="8" height="8"/>
			<rect x="53" y="59.5" width="8" height="3.5"/>
			<path d="m21.5 44v-24l21 12z"/>
		</g>
		<rect x="1" y="1" width="62" height="62"/>
	</symbol>
	<symbol id="comments" viewBox="0 0 64 64">
		<g color="var(--icon-inline)">
			<circle cx="16" cy="26" r="4"/>
			<circle cx="32" cy="26" r="4"/>
			<circle cx="48" cy="26" r="4"/>
		</g>
		<path d="m1 26c0-14 14-25 31-25s31 11 31 25-14 25-31 25h-1c-12 12-28 12-28 12s10-5 10-17.2c0 0-12-5.75-12-19.8z"/>
	</symbol>
</svg>
